<?xml version="1.0" encoding="UTF-8"?>
<svg version="1.1" xmlns="http://www.w3.org/2000/svg" width="1433" height="1433">
<path d="M0 0 C1.20988083 0.07228821 2.41976166 0.14457642 3.66630554 0.21905518 C7.60873068 0.45930742 11.55059543 0.70745715 15.4921875 0.9609375 C16.16642635 1.00419411 16.84066521 1.04745071 17.53533554 1.09201813 C54.80211812 3.49695134 91.80749235 7.56300219 128.3671875 15.3359375 C129.73215501 15.61964196 131.09722917 15.9028337 132.46240234 16.18554688 C185.2625306 27.18261791 236.79981595 44.85476557 285.49560547 67.97802734 C288.13391362 69.22562724 290.7808139 70.45151812 293.43359375 71.66796875 C327.74951184 87.48435898 360.55265989 107.52221692 391.3671875 129.3359375 C392.07262695 129.83416016 392.77806641 130.33238281 393.50488281 130.84570312 C409.13349131 141.91740372 424.32150517 153.51652086 438.83154297 166.02246094 C440.38569177 167.35176468 441.953772 168.66251625 443.52734375 169.96875 C450.22072893 175.53807857 456.66892897 181.31402674 462.99169922 187.30200195 C465.92894655 190.0808405 468.8902815 192.79605106 471.96875 195.41796875 C477.61434052 200.32522157 482.84459051 205.66431434 488.12182617 210.96020508 C489.92580835 212.76954683 491.73507415 214.57348069 493.54492188 216.37695312 C498.84345692 221.67243371 504.08587085 226.96268369 508.94604492 232.66967773 C511.13453527 235.23563661 513.44359454 237.68072884 515.7421875 240.1484375 C519.95671976 244.71543961 523.97015363 249.39873112 527.8671875 254.2421875 C529.76623397 256.5922575 531.68177446 258.92237372 533.6171875 261.2421875 C541.51455885 270.71969151 549.11322051 280.35681828 556.3671875 290.3359375 C557.05748047 291.28460693 557.05748047 291.28460693 557.76171875 292.25244141 C572.25323506 312.27012397 586.03118593 332.92024258 598.3671875 354.3359375 C598.89650879 355.2532666 599.42583008 356.1705957 599.97119141 357.11572266 C603.82881863 363.82331194 607.62390866 370.56389494 611.3671875 377.3359375 C611.80772461 378.13290039 612.24826172 378.92986328 612.70214844 379.75097656 C640.98812708 431.31050828 661.98002715 488.08573771 675.3671875 545.3359375 C675.53263062 546.04002747 675.69807373 546.74411743 675.86853027 547.46954346 C687.91912236 598.90880689 693.84749541 650.56015988 695.3671875 703.3359375 C695.42132812 705.20378906 695.42132812 705.20378906 695.4765625 707.109375 C696.85853345 764.18477516 689.13519781 821.81043712 676.3671875 877.3359375 C675.9637915 879.10807617 675.9637915 879.10807617 675.55224609 880.91601562 C670.91195399 901.06651957 664.80510016 920.70273137 658.3671875 940.3359375 C657.97772949 941.53025391 657.58827148 942.72457031 657.18701172 943.95507812 C649.17173328 968.36572726 639.22988547 992.06187017 628.3671875 1015.3359375 C627.91907715 1016.29918945 627.4709668 1017.26244141 627.00927734 1018.25488281 C607.28586244 1060.47834227 582.84458116 1099.76704597 555.3671875 1137.3359375 C554.95758789 1137.89764648 554.54798828 1138.45935547 554.12597656 1139.03808594 C547.99808278 1147.41942895 541.46846772 1155.45829425 534.88476562 1163.48193359 C533.53372591 1165.13247986 532.19038087 1166.78875742 530.8515625 1168.44921875 C526.53807073 1173.7807549 522.09016929 1178.94510293 517.47265625 1184.015625 C515.63801065 1186.03747934 513.83949964 1188.08272272 512.0546875 1190.1484375 C503.33495765 1200.1333363 494.18208122 1209.68714628 484.79296875 1219.04052734 C483.10037403 1220.72769708 481.41328153 1222.42023946 479.7265625 1224.11328125 C474.64943323 1229.19351824 469.5601291 1234.18967309 464.09326172 1238.85498047 C461.33458316 1241.22190326 458.70536138 1243.72467568 456.0546875 1246.2109375 C451.24097687 1250.68888902 446.30508197 1254.94175297 441.17578125 1259.05859375 C438.6084362 1261.14032138 436.09180142 1263.26725329 433.58349609 1265.41894531 C427.59664271 1270.54851381 421.46918084 1275.39725735 415.10351562 1280.0546875 C413.20513954 1281.45551395 411.32509726 1282.87901821 409.4453125 1284.3046875 C383.70534433 1303.70544835 356.36067928 1321.59589854 327.99853516 1336.91064453 C324.99330384 1338.53845493 321.9991827 1340.18597843 319.00390625 1341.83203125 C263.75231468 1372.01834298 203.75263887 1394.32896093 142.3671875 1408.3359375 C141.09955566 1408.6256543 139.83192383 1408.91537109 138.52587891 1409.21386719 C114.67667876 1414.60590993 90.61762576 1418.2777342 66.3671875 1421.3359375 C65.66762939 1421.42423828 64.96807129 1421.51253906 64.24731445 1421.60351562 C-17.55212413 1431.81211771 -101.14861806 1425.81803909 -349.30078125 1344.609375 C-351.93942028 1343.16851013 -354.59723545 1341.76711529 -357.2578125 1340.3671875 C-404.7003288 1315.27464672 -449.68311961 1283.45524701 -489.390625 1247.36328125 C-491.34489674 1245.59626551 -493.32340987 1243.86680221 -495.3203125 1242.1484375 C-506.50709007 1232.34899652 -517.10947053 1221.96108721 -527.6328125 1211.4609375 C-528.17501434 1210.92132385 -528.71721619 1210.38171021 -529.27584839 1209.82574463 C-535.28263585 1203.84157882 -541.12152946 1197.78507278 -546.6328125 1191.3359375 C-548.25249067 1189.56023529 -549.87692968 1187.78885443 -551.5078125 1186.0234375 C-555.95467727 1181.14256941 -560.15710151 1176.11218226 -564.30029297 1170.97314453 C-565.81502854 1169.11205682 -567.34953035 1167.26836544 -568.88671875 1165.42578125 C-576.78214638 1155.94907187 -584.37992749 1146.31356827 -591.6328125 1136.3359375 C-592.09300781 1135.70349121 -592.55320312 1135.07104492 -593.02734375 1134.41943359 C-606.36865456 1115.99057362 -619.21681805 1097.01946762 -630.6328125 1077.3359375 C-631.34920038 1076.15091255 -632.06803897 1074.96736638 -632.7890625 1073.78515625 C-647.05370282 1050.24501611 -659.59151507 1025.53369536 -670.6328125 1000.3359375 C-670.90655701 999.71279663 -671.18030151 999.08965576 -671.46234131 998.44763184 C-704.87384511 922.21865153 -724.93105776 839.43207915 -729.41357422 756.27050781 C-729.57388868 753.39341674 -729.74696361 750.51889517 -729.93408203 747.64355469 C-731.48212581 723.75324998 -731.70416959 700.43268036 -729.80529785 676.56848145 C-729.571355 673.54046959 -729.36526789 670.51079263 -729.15855408 667.4808197 C-727.61198024 644.95882885 -725.00525257 622.65490593 -721.6328125 600.3359375 C-721.44493164 599.07942383 -721.25705078 597.82291016 -721.06347656 596.52832031 C-712.41242325 539.82614019 -695.57983301 483.86023116 -672.6328125 431.3359375 C-672.23642578 430.42295898 -671.84003906 429.50998047 -671.43164062 428.56933594 C-668.91092573 422.78741885 -666.30040442 417.05143416 -663.6328125 411.3359375 C-663.18470215 410.37268555 -662.7365918 409.40943359 -662.27490234 408.41699219 C-645.76108837 373.0645769 -626.1043657 339.23989191 -603.6328125 307.3359375 C-603.20226562 306.72379395 -602.77171875 306.11165039 -602.328125 305.48095703 C-584.19592431 279.75933143 -564.58084559 255.07193891 -543.16040039 232.00708008 C-542.02022219 230.75975392 -540.89400217 229.49964189 -539.77514648 228.2331543 C-533.70876648 221.38401559 -527.33615353 214.8857668 -520.85766602 208.43041992 C-519.066053 206.6441908 -517.27988195 204.85264403 -515.49414062 203.06054688 C-510.24260419 197.80595873 -504.99353375 192.61341925 -499.3347168 187.79272461 C-496.58194074 185.4364178 -493.96265679 182.93938638 -491.3203125 180.4609375 C-486.49698827 175.97404293 -481.55125272 171.71304737 -476.41015625 167.58984375 C-473.98493519 165.6216967 -471.61501574 163.60291593 -469.25512695 161.55737305 C-460.09538571 153.65066261 -450.37111431 146.5077317 -440.6328125 139.3359375 C-439.87838867 138.77616211 -439.12396484 138.21638672 -438.34667969 137.63964844 C-414.546485 119.99376178 -389.3386904 103.84073045 -363.26416016 89.76123047 C-360.25892884 88.13342007 -357.2648077 86.48589657 -354.26953125 84.83984375 C-274.92221414 41.48900477 -187.71422105 15.99290444 -56.6328125 1.3359375 C-54.45093727 1.19979074 -52.2692021 1.06151835 -50.08746338 0.92320251 C-46.24871537 0.6808276 -42.40955048 0.44540462 -38.5703125 0.2109375 C-37.84402649 0.16619293 -37.11774048 0.12144836 -36.3694458 0.0753479 C-34.27903547 -0.05213066 -32.18841081 -0.17518669 -30.09765625 -0.296875 C-28.8974585 -0.36793457 -27.69726074 -0.43899414 -26.46069336 -0.51220703 C-17.6049914 -0.86352067 -8.84302847 -0.53528932 0 0 Z " fill="#0D0D0F" transform="translate(734.6328125,1.6640625)"/>
<path d="M0 0 C309.97020859 0 309.97020859 0 329.4375 4.1875 C330.46351318 4.40253174 331.48952637 4.61756348 332.54663086 4.83911133 C372.64871633 13.5249859 406.66229944 29.27537984 436 58 C437.14082031 59.10214844 437.14082031 59.10214844 438.3046875 60.2265625 C465.96645456 89.03612072 473.75995522 130.64461295 473 169 C472.98324219 170.02351562 472.96648437 171.04703125 472.94921875 172.1015625 C471.61306021 198.5956776 460.51089886 226.10897897 443 246 C442.32582031 246.80566406 441.65164063 247.61132812 440.95703125 248.44140625 C427.65587347 263.92308169 411.16274881 274.36077758 392.90771484 283.07373047 C390.90483432 284.04620663 388.93131595 285.0682138 386.953125 286.08984375 C383.43388523 287.85459996 379.90603135 289.12903541 376.125 290.25 C374.45824219 290.75273438 374.45824219 290.75273438 372.7578125 291.265625 C370 292 370 292 368 292 C368 292.66 368 293.32 368 294 C368.62108643 294.03810791 369.24217285 294.07621582 369.88208008 294.11547852 C375.91958437 294.58659504 381.0620572 295.73591721 386.6875 297.9375 C387.48567139 298.24179932 388.28384277 298.54609863 389.10620117 298.85961914 C411.76559099 307.63134682 436.61730021 317.30895022 453.5546875 335.48046875 C454.99753629 336.99740977 456.50050043 338.30662472 458.125 339.625 C481.89004389 359.25699278 493.98569953 391.84187288 497.6953125 421.69384766 C499.15329097 437.51431597 499.23045661 454.3889453 496 470 C495.84934082 470.77005371 495.69868164 471.54010742 495.54345703 472.33349609 C490.79279703 496.19632142 481.02812747 519.47356116 465 538 C463.66361973 539.72681294 462.33031975 541.45601379 461 543.1875 C457.37473047 547.70503548 453.46341064 551.33530495 449 555 C447.74316406 556.12148437 447.74316406 556.12148437 446.4609375 557.265625 C437.9992156 564.67837311 428.75543148 570.43341998 419 576 C417.97132813 576.5878125 416.94265625 577.175625 415.8828125 577.78125 C407.41127966 582.2930012 398.29567757 585.20437415 389.21313477 588.22558594 C387.65211527 588.77181361 386.10917546 589.37110192 384.58251953 590.00708008 C381.82012747 591.06915689 379.12576497 591.75569585 376.23828125 592.40234375 C375.1294458 592.65137451 374.02061035 592.90040527 372.87817383 593.15698242 C340.46236505 600.25272639 308.71416114 603.49794572 275.51354992 603.34821819 C271.74110033 603.33477434 267.96865695 603.33952392 264.19618988 603.34167194 C256.92852196 603.34324387 249.6609685 603.32962129 242.39332971 603.31016796 C233.95719648 603.28827819 225.52112867 603.28616811 217.08496094 603.28381348 C194.88995626 603.26816294 172.69497632 603.22627921 150.5 603.1875 C100.835 603.125625 51.17 603.06375 0 603 C0 404.01 0 205.02 0 0 Z " fill="#F9FAF8" transform="translate(617,412)"/>
<path d="M0 0 C42.57 0 85.14 0 129 0 C129.02205974 50.92305439 129.04051843 101.84610425 129.05106533 152.76916206 C129.05231598 158.78580531 129.05361031 164.80244856 129.05493164 170.8190918 C129.05532511 172.61574359 129.05532511 172.61574359 129.05572652 174.44869138 C129.06007373 193.82385466 129.06795607 213.19901496 129.0771528 232.57417648 C129.08651571 252.46586667 129.0920612 272.35755531 129.09408849 292.24924761 C129.09545824 304.51609784 129.09977912 316.78293965 129.10791647 329.04978729 C129.11321647 337.47010334 129.1147969 345.89041506 129.11350138 354.31073266 C129.11286308 359.16335798 129.11381771 364.01596862 129.11920547 368.86859131 C129.12411381 373.32222299 129.12429047 377.7758303 129.12089889 382.22946317 C129.12048045 383.8300247 129.12171304 385.43058783 129.12488318 387.03114628 C129.15283651 402.03199853 128.63561762 416.91282298 126.25 431.75 C125.98558105 433.41059448 125.98558105 433.41059448 125.71582031 435.10473633 C121.81536788 458.79845326 115.48135717 481.95447078 103.98681641 503.15576172 C102.99127331 505.01630912 102.04426135 506.89541681 101.10546875 508.78515625 C96.65785694 517.62340303 91.36140678 525.51620132 85.29785156 533.32763672 C84.16116539 534.79232827 83.04377827 536.27195532 81.9296875 537.75390625 C51.38697955 576.98032528 6.08222021 598.30599663 -42 607 C-43.36680908 607.25209229 -43.36680908 607.25209229 -44.76123047 607.50927734 C-95.57562396 616.46887715 -151.4531304 609.27911644 -197 585 C-197.67063477 584.64534668 -198.34126953 584.29069336 -199.03222656 583.92529297 C-212.4052029 576.80307773 -224.51192452 568.68864241 -235.55859375 558.28515625 C-237.62934139 556.34693646 -239.74535715 554.54602669 -241.9375 552.75 C-276.48406504 522.4164307 -294.73817712 473.41188829 -301 429 C-301.99 422.565 -301.99 422.565 -303 416 C-303 406.1 -303 396.2 -303 386 C-261.09 386 -219.18 386 -176 386 C-175.505 395.9 -175.505 395.9 -175 406 C-174.48127609 410.18388578 -173.93651653 414.24259457 -173.1875 418.375 C-173.00936768 419.38755859 -172.83123535 420.40011719 -172.64770508 421.44335938 C-168.54858101 444.00389766 -159.67204762 470.46363285 -140.4375 484.6875 C-128.78939691 492.17041452 -117.7304113 497.03619413 -104 499 C-103.05125 499.18304687 -102.1025 499.36609375 -101.125 499.5546875 C-78.39383457 502.79387857 -52.72169958 498.72924636 -34 485 C-11.30374001 466.4642765 -5.06096759 437.8214678 -2 410 C-1.74458414 408.37792205 -1.74458414 408.37792205 -1.48400837 406.72307485 C-1.006367 403.04897605 -0.86939274 399.5480654 -0.8613348 395.84486485 C-0.85707147 394.81212759 -0.85707147 394.81212759 -0.85272202 393.75852695 C-0.84442048 391.45859898 -0.8431104 389.15872168 -0.84178162 386.85877991 C-0.83721317 385.19044277 -0.83221273 383.52210677 -0.82681805 381.8537721 C-0.81325975 377.27475579 -0.80582527 372.6957469 -0.79939139 368.11671579 C-0.7913773 363.17677022 -0.777683 358.23684002 -0.76467896 353.29690552 C-0.74293052 344.73991948 -0.72478006 336.18293187 -0.70907402 327.62593269 C-0.68636053 315.25395097 -0.65821974 302.88198627 -0.62875474 290.510019 C-0.58109698 270.43726953 -0.53782787 250.36451311 -0.49731445 230.29174805 C-0.45795029 210.79304462 -0.41652185 191.29434737 -0.37231445 171.7956543 C-0.36822804 169.99277407 -0.36822804 169.99277407 -0.36405908 168.15347201 C-0.35037945 162.12378566 -0.33665921 156.0940994 -0.32291877 150.06441319 C-0.20898252 100.04295427 -0.1029746 50.02148293 0 0 Z " fill="#FAFAF8" transform="translate(418,412)"/>
<path d="M0 0 C24.234375 -0.04125 48.46875 -0.0825 73.4375 -0.125 C81.06157959 -0.14320801 88.68565918 -0.16141602 96.54077148 -0.18017578 C105.92199707 -0.18920898 105.92199707 -0.18920898 110.32752991 -0.19088745 C113.37431308 -0.19273473 116.42102503 -0.2001649 119.4677887 -0.21115112 C123.37559586 -0.22505158 127.28330213 -0.22894924 131.19113171 -0.22614455 C132.61187977 -0.22672947 134.03263201 -0.23058604 135.45335853 -0.23843026 C161.57104288 -0.37572537 188.84153533 3.63872477 210 20 C210.79664063 20.59167969 211.59328125 21.18335938 212.4140625 21.79296875 C224.71939425 31.70912097 231.36861294 46.68909641 234 62 C234.85245582 76.04259293 235.71022744 90.87711706 230 104 C229.34644531 105.55460938 229.34644531 105.55460938 228.6796875 107.140625 C220.0056121 126.00555402 205.08137 136.46958875 186.25 143.8125 C177.73365229 146.69003728 168.89640608 147.91730081 160 149 C158.15424881 149.25356514 158.15424881 149.25356514 156.27120972 149.51225281 C149.5681273 150.24869595 142.85146038 150.13146852 136.11694336 150.11352539 C134.60398899 150.11321859 133.09103448 150.11335334 131.57808018 150.11389065 C127.54881893 150.11411519 123.51958775 150.10834505 119.49033356 150.10128021 C115.70095227 150.09555947 111.91157806 150.09531569 108.12219238 150.09460449 C97.06062432 150.08936989 85.99906177 150.07540864 74.9375 150.0625 C50.208125 150.041875 25.47875 150.02125 0 150 C0 100.5 0 51 0 0 Z " fill="#0C0D0F" transform="translate(748,762)"/>
<path d="M0 0 C22.97625 -0.04125 45.9525 -0.0825 69.625 -0.125 C76.85873535 -0.14320801 84.0924707 -0.16141602 91.54541016 -0.18017578 C100.43237305 -0.18920898 100.43237305 -0.18920898 104.6031189 -0.19088745 C107.49336874 -0.19273801 110.38354384 -0.20018166 113.27377319 -0.21115112 C116.97698391 -0.22501681 120.68008821 -0.22895542 124.38332248 -0.22614455 C126.36139059 -0.22700473 128.33944733 -0.23765431 130.3174839 -0.2488575 C152.03198178 -0.19913716 175.2361055 4.40241394 192 19 C192.82371094 19.62519531 193.64742187 20.25039063 194.49609375 20.89453125 C204.90167566 29.64431074 211.27399284 43.98499698 212.625 57.3125 C212.7724073 59.54029714 212.89473328 61.76981437 213 64 C213.03399902 64.67530762 213.06799805 65.35061523 213.10302734 66.04638672 C213.99517913 86.15829587 209.29005772 103.12204492 196.44921875 118.90625 C182.94615821 133.64904562 160.29673827 140.5180038 141 142 C136.34456492 142.13664769 131.69205943 142.12652981 127.03491211 142.11352539 C125.62208083 142.11321853 124.2092494 142.11335344 122.79641819 142.11389065 C119.03649909 142.11411503 115.27661227 142.10834826 111.51670074 142.10128021 C107.97959804 142.0955561 104.44250292 142.09531551 100.90539551 142.09460449 C90.58275945 142.08937154 80.26012931 142.07541028 69.9375 142.0625 C35.3184375 142.0315625 35.3184375 142.0315625 0 142 C0 95.14 0 48.28 0 0 Z " fill="#0C0C0E" transform="translate(748,516)"/>
<path d="M0 0 C37.95 0 75.9 0 115 0 C115 37.62 115 75.24 115 114 C77.05 114 39.1 114 0 114 C0 76.38 0 38.76 0 0 Z " fill="#45C6E5" transform="translate(1171,901)"/>
<path d="M0 0 C37.95 0 75.9 0 115 0 C115 37.62 115 75.24 115 114 C77.05 114 39.1 114 0 114 C0 76.38 0 38.76 0 0 Z M5 2 C3.72422355 6.30187016 2.75148051 10.0001028 2.8046875 14.49609375 C2.81113281 15.46611328 2.81757812 16.43613281 2.82421875 17.43554688 C2.84097656 18.42619141 2.85773438 19.41683594 2.875 20.4375 C2.88402344 21.45521484 2.89304687 22.47292969 2.90234375 23.52148438 C2.92575302 26.01457156 2.958543 28.50715859 3 31 C2.67 31 2.34 31 2 31 C1.97687641 41.41342925 1.95908483 51.82685244 1.94818783 62.24030209 C1.94295903 67.07516827 1.93586146 71.91001694 1.92456055 76.74487305 C1.91373153 81.4067712 1.90772314 86.06865246 1.90512276 90.73056221 C1.90326853 92.51324288 1.89964797 94.29592259 1.89426994 96.07859612 C1.88705931 98.5666596 1.88600907 101.05465243 1.88647461 103.54272461 C1.8810817 104.65942032 1.8810817 104.65942032 1.87557983 105.79867554 C1.58019003 109.18567883 1.58019003 109.18567883 3 112 C4.42946471 112.09554399 5.86362665 112.12188438 7.29627991 112.12025452 C8.22321152 112.12162918 9.15014313 112.12300385 10.10516357 112.12442017 C11.13014954 112.12082489 12.1551355 112.11722961 13.21118164 112.11352539 C14.28422043 112.11367142 15.35725922 112.11381744 16.46281433 112.1139679 C20.02861516 112.11326824 23.59436449 112.10547338 27.16015625 112.09765625 C29.62495393 112.09579226 32.08975199 112.09436827 34.55455017 112.09336853 C41.05653905 112.08954187 47.55850575 112.07971032 54.06048584 112.06866455 C60.68940817 112.05791748 67.31833693 112.05387159 73.94726562 112.04882812 C86.96485324 112.03808819 99.98242544 112.02120097 113 112 C113.0231679 102.55106895 113.04093781 93.10214768 113.05181217 83.65319443 C113.05703125 79.26569363 113.06411124 74.87821227 113.07543945 70.49072266 C113.08630293 66.25674498 113.0922842 62.022786 113.09487724 57.78879547 C113.09672524 56.17326819 113.10033388 54.55774193 113.10573006 52.9422226 C113.11298637 50.6798837 113.113989 48.4176221 113.11352539 46.15527344 C113.115746 44.86731873 113.11796661 43.57936401 113.12025452 42.25238037 C113.02160181 39.58423827 112.71809466 37.53454454 112 35 C111.91757806 32.53762233 111.89256701 30.07311232 111.90234375 27.609375 C111.9037587 26.90476135 111.90517365 26.20014771 111.90663147 25.47418213 C111.91221067 23.23274416 111.92475927 20.99140757 111.9375 18.75 C111.94251769 17.22656395 111.94708013 15.70312632 111.95117188 14.1796875 C111.96217326 10.45309228 111.97942354 6.72655604 112 3 C101.02955073 1.55102624 89.96539719 1.87388879 78.92578125 1.90234375 C76.78915948 1.90421159 74.65253727 1.90563376 72.51591492 1.90663147 C66.92484327 1.91042782 61.33379809 1.92023314 55.74273682 1.93133545 C50.02445839 1.94161189 44.30617564 1.94614238 38.58789062 1.95117188 C27.39191553 1.9618583 16.19595998 1.97889965 5 2 Z " fill="#5CBAD1" transform="translate(1171,901)"/>
<path d="M0 0 C0 0.99 0 1.98 0 3 C1.32 3 2.64 3 4 3 C4.33 2.34 4.66 1.68 5 1 C5 1.66 5 2.32 5 3 C5.66 2.67 6.32 2.34 7 2 C9.09869459 1.74231581 11.20465801 1.54209959 13.3125 1.375 C14.44300781 1.27960937 15.57351563 1.18421875 16.73828125 1.0859375 C20.87591127 0.9769221 24.09676989 1.6989233 28 3 C28 3.66 28 4.32 28 5 C-9.95 5 -47.9 5 -87 5 C-87 42.62 -87 80.24 -87 119 C-87.33 119 -87.66 119 -88 119 C-88 80.72 -88 42.44 -88 3 C-79 1 -79 1 -77 2 C-75.66273031 1.68282706 -74.32988814 1.34682335 -73 1 C-71.41788427 0.93451508 -69.83329919 0.91421619 -68.25 0.9375 C-67.45078125 0.94652344 -66.6515625 0.95554687 -65.828125 0.96484375 C-65.22484375 0.97644531 -64.6215625 0.98804688 -64 1 C-64 1.66 -64 2.32 -64 3 C-56.43752401 2.90747468 -48.87536103 2.80013578 -41.31323242 2.68261719 C-38.74199157 2.64439276 -36.17069844 2.6095286 -33.59936523 2.578125 C-29.89808499 2.53233302 -26.19716264 2.47436077 -22.49609375 2.4140625 C-21.35103867 2.40251129 -20.20598358 2.39096008 -19.02622986 2.37905884 C-12.50966063 2.25923357 -6.27469696 0 0 0 Z " fill="#0C3544" transform="translate(1258,896)"/>
<path d="M0 0 C2.23550088 4.47100176 2.23550088 4.47100176 2.0625 8.0625 C1.78408463 11.90432805 1.78408463 11.90432805 3 15 C2.75557293 16.7888601 2.50898066 18.57744289 2.25341797 20.36474609 C1.61539058 26.99949336 1.98901269 33.73536692 2.09594727 40.39575195 C2.12609454 42.40564958 2.143315 44.41572809 2.16015625 46.42578125 C2.18541382 48.21109253 2.18541382 48.21109253 2.21118164 50.0324707 C2 53 2 53 0 56 C0 37.52 0 19.04 0 0 Z " fill="#001420" transform="translate(1287,902)"/>
<path d="M0 0 C0.66 0.33 1.32 0.66 2 1 C5.03571759 1.97926374 5.83299069 2.05566977 9 1 C10.86930224 1.23366278 12.73820103 1.47292023 14.6015625 1.75 C18.29760915 2.13525568 21.97047565 1.96899458 25.6796875 1.83984375 C28 2 28 2 30 4 C16.8 4 3.6 4 -10 4 C-10 3.67 -10 3.34 -10 3 C-6.7 2.67 -3.4 2.34 0 2 C0 1.34 0 0.68 0 0 Z " fill="#3EBDDA" transform="translate(1219,1009)"/>
<path d="M0 0 C-0.33 1.32 -0.66 2.64 -1 4 C-4.3 3.67 -7.6 3.34 -11 3 C-11 2.34 -11 1.68 -11 1 C-3.57142857 -1.42857143 -3.57142857 -1.42857143 0 0 Z " fill="#2C2C2B" transform="translate(996,703)"/>
<path d="M0 0 C-3.44450737 2.29633824 -5.93812283 2.54016485 -10 3 C-10 2.34 -10 1.68 -10 1 C-3.71428571 -1.42857143 -3.71428571 -1.42857143 0 0 Z " fill="#001A24" transform="translate(1180,898)"/>
</svg>
